<?xml version="1.0" encoding="utf-8"?>
<!-- Generator: Adobe Illustrator 19.2.1, SVG Export Plug-In . SVG Version: 6.00 Build 0)  -->
<svg version="1.1" id="Layer_1" xmlns="http://www.w3.org/2000/svg" xmlns:xlink="http://www.w3.org/1999/xlink" x="0px" y="0px"
	 width="48px" height="54px" viewBox="0 0 48 54" style="enable-background:new 0 0 48 54;" xml:space="preserve">
<style type="text/css">
	.st0{fill:#333333;}
	.st1{fill:#FFFFFF;}
</style>
<path class="st0" d="M37.9,6H10.3c-4.8,0-8.6,3.9-8.6,8.6v27.7c0,4.8,3.9,8.6,8.6,8.6h27.7c4.8,0,8.6-3.9,8.6-8.6V14.6
	C46.6,9.9,42.7,6,37.9,6z"/>
<path class="st1" d="M15.3,22.1c0.5-0.6,1.4-1,2.2-1c0,0.9-0.2,1.5-0.8,2.2c-0.3,0.6-1.3,1-2,1C14.4,23.4,14.9,22.6,15.3,22.1z"/>
<path class="st1" d="M19.4,33.6c-0.5,0.9-1.2,1.6-2.2,1.6c-0.9,0-1.3-0.5-2.3-0.5c-1.2,0-1.5,0.5-2.3,0.5c-0.9,0-1.6-0.9-2.2-1.7
	c-0.9-1.2-1.5-2.9-1.5-4.6c0-0.9,0.2-1.6,0.6-2.4c0.8-1,1.8-1.8,3.1-1.8c0.9,0,1.6,0.6,2.3,0.6c0.5,0,1.5-0.6,2.7-0.6
	c0.5,0,1.7,0.1,2.7,1.4c-0.1,0-1.5,0.9-1.5,2.8c0.1,2.2,1.8,2.8,1.8,2.8C20.3,31.7,20.2,32.7,19.4,33.6z"/>
<path class="st1" d="M28.6,26.8h-2.5v4.5c0,1.3,0.2,1.8,1.4,1.8c0.3,0,0.8-0.1,1-0.1v2c-0.3,0.1-1,0.2-1.8,0.2
	c-0.9,0-1.7-0.2-2.2-0.9c-0.5-0.6-0.9-1.5-0.9-2.8v-5H22v-1.8h1.5v-2.1l2.5-0.6V25h2.5L28.6,26.8L28.6,26.8z"/>
<path class="st1" d="M35.9,35.1h-2.5L29.4,25h2.8l1.6,5.3c0.2,0.9,0.5,1.6,0.8,2.7h0.1c0.2-0.9,0.3-1.6,0.8-2.7l1.6-5.3h2.8
	L35.9,35.1z"/>
</svg>
