<?xml version="1.0" encoding="utf-8"?>
<!-- Generator: Adobe Illustrator 19.2.1, SVG Export Plug-In . SVG Version: 6.00 Build 0)  -->
<svg version="1.1" id="Layer_1" xmlns="http://www.w3.org/2000/svg" xmlns:xlink="http://www.w3.org/1999/xlink" x="0px" y="0px"
	 width="42px" height="54px" viewBox="0 0 42 54" style="enable-background:new 0 0 42 54;" xml:space="preserve">
<style type="text/css">
	.st0{fill:#333333;}
</style>
<g>
	<g>
		<path class="st0" d="M7.6,15.7C7.5,15.6,7.6,15.6,7.6,15.7c-0.2,0.1-0.2,0.1-0.3,0.3c-0.1,0.1-0.4,0.8-0.5,0.9
			c-0.2,0.4-0.5,0.7-0.8,0.9c-0.3,0.2-0.8,0.2-1,0.2c-0.4,0-0.8-0.3-1.1-0.6c-0.4-0.5-0.5-1.1-0.2-1.6c0.3-0.5,0.7-1.2,0.8-1.3
			c-0.5,0-0.8,0.1-1.3,0.3C2.8,15,2.3,15.3,2,15.6v5.8c0.5-0.8,1.4-1.3,2.4-1.3c1.6,0,3,1.3,3,3c0,1.6-1.3,2.9-3,2.9
			c-1,0-1.9-0.5-2.4-1.3v16.2c0.3,0.4,0.8,0.7,1.2,0.9c0.5,0.2,0.9,0.4,1.3,0.4c-0.1-0.1-0.2-0.2-0.2-0.3c-0.1-0.1-0.6-0.8-0.7-1.3
			c-0.1-0.5,0.1-1,0.3-1.2c0.2-0.3,0.5-0.5,1-0.6c0.3,0,0.6-0.1,1,0.1c0.3,0.1,0.6,0.4,0.9,1c0,0,0.4,0.8,0.5,0.9
			c0.1,0.1,0.1,0.2,0.2,0.4c0.1-0.1,0,0,0.1-0.1c0.5-0.6,0.8-1.2,0.9-1.9c0.1-0.3,0.1-0.6,0.1-1c0-0.3,0-0.7,0-1.2V19.7
			c0-0.5,0-0.9,0-1.2c0-0.3,0-0.7-0.1-1C8.4,16.9,8.1,16.2,7.6,15.7z M3.2,35.2c0-0.1,0-0.3,0-0.5c0-0.1,0-0.3,0-0.5v-3.4
			c0-0.2,0-0.4,0-0.5c0-0.2,0-0.3,0-0.5c0.1-0.3,0.2-0.6,0.4-0.9c0.5-0.5,1.3-0.7,1.9-0.4c0.4,0.2,0.7,0.5,0.9,1
			c0.1,0.2,0.1,0.4,0.1,0.6c0,0.2,0,0.4,0,0.7v3.4c0,0.4,0,0.5,0,0.7c0,0.2,0,0.4-0.1,0.6c-0.1,0.4-0.4,0.8-0.9,1
			c-0.2,0.1-0.5,0.2-0.7,0.2c-0.5,0-0.9-0.2-1.2-0.6C3.3,35.9,3.2,35.6,3.2,35.2z"/>
		<path class="st0" d="M2.1,21.4v-5.8c0,0-0.1,0.1-0.1,0.1c-0.3,0.4-0.6,0.8-0.7,1.2c-0.2,0.4-0.2,0.9-0.2,1.3c0,0.4,0,0.9,0,1.5V37
			c0,0.6,0,1.1,0,1.5c0,0.4,0.1,0.9,0.2,1.3c0.1,0.5,0.4,0.9,0.8,1.3c0,0,0,0,0,0l0-16.2c-0.4-0.4-0.6-1.2-0.6-1.8
			S1.7,21.9,2.1,21.4z"/>
		<path class="st0" d="M5.3,36c0.3-0.1,0.5-0.4,0.6-0.7C6,35.1,6,35,6,34.8c0-0.2,0-0.3,0-0.6V31c0-0.3,0-0.5,0-0.6
			c0-0.2,0-0.3-0.1-0.5c-0.1-0.3-0.3-0.6-0.6-0.7C5.1,29.1,5,29,4.8,29c-0.3,0-0.7,0.2-0.9,0.4c-0.2,0.2-0.2,0.4-0.3,0.6
			c0,0.1,0,0.2,0,0.4c0,0.1,0,0.3,0,0.5v3.1c0,0.2,0,0.4,0,0.5c0,0.2,0,0.3,0,0.4c0,0.2,0.1,0.5,0.3,0.6C4.2,36,4.8,36.2,5.3,36z"/>
		<path class="st0" d="M6.9,23.2c0,1.3-1.1,2.4-2.4,2.4c-1.3,0-2.4-1.1-2.4-2.4c0-1.3,1.1-2.4,2.4-2.4C5.8,20.7,6.9,21.8,6.9,23.2z"
			/>
	</g>
	<path class="st0" d="M37.7,36c-0.7,2-1.7,3.9-3,5.6c-1.3,1.8-2.8,3.3-4.6,4.5c-1.7,1.2-3.7,2-5.6,2.4c-1,0.2-2,0.3-2.9,0.4
		c-0.2,0-0.5,0-0.7,0h-0.2l-0.2,0c-0.1,0-0.2,0-0.4,0c-0.5,0-0.9,0-1.4-0.1c-0.9-0.1-1.8-0.3-2.6-0.5c-0.4-0.1-0.8-0.3-1.2-0.4
		c-0.4-0.1-0.8-0.3-1.1-0.5l-0.1-0.1l-0.1,0c0,0,0,0,0,0l0,0c0,0,0,0,0,0c0,0,0,0,0,0l0,0l0,0c-0.1,0-0.2-0.1-0.3-0.1
		c-0.1,0-0.2-0.1-0.3-0.1l-0.1-0.1l-0.1-0.1c-0.2-0.1-0.3-0.2-0.5-0.3c-0.2-0.1-0.3-0.2-0.5-0.3c-0.6-0.4-1.2-0.8-1.7-1.2
		c-0.3-0.2-0.5-0.4-0.7-0.6C9.2,44.2,9,44,8.8,43.8c-0.4-0.4-0.7-0.8-1-1.2c-0.1-0.2-0.3-0.4-0.4-0.6c-0.1-0.2-0.2-0.3-0.3-0.5
		c-0.1-0.2-0.2-0.3-0.3-0.5c-0.1-0.2-0.2-0.3-0.3-0.5c0-0.1-0.1-0.2-0.1-0.2c-0.1-0.2-0.2-0.3-0.3-0.5c-0.1-0.1-0.3-0.3-0.4-0.4
		c-0.2-0.1-0.4-0.1-0.7-0.1c-0.3,0-0.6,0.2-0.8,0.5c-0.2,0.2-0.2,0.5-0.2,0.7c0,0,0,0.1,0,0.1c0,0.3,0.1,0.5,0.3,0.7
		c0.1,0.1,0.1,0.2,0.2,0.3c0.1,0.2,0.3,0.4,0.4,0.6c0,0.1,0.1,0.1,0.1,0.2C5.4,42.7,5.7,43,6,43.4c0.1,0.1,0.2,0.3,0.3,0.4
		c0.2,0.2,0.3,0.4,0.5,0.6c0.1,0.1,0.2,0.2,0.3,0.3c0.1,0.1,0.2,0.2,0.3,0.3c0.1,0.1,0.2,0.2,0.3,0.3c0.1,0.1,0.2,0.2,0.4,0.3
		C8.4,46,8.7,46.2,9,46.4c0.6,0.5,1.2,0.9,1.9,1.3c0.2,0.1,0.3,0.2,0.5,0.3c0.2,0.1,0.4,0.2,0.6,0.3l0.1,0.1l0.1,0.1
		c0.1,0,0.2,0.1,0.3,0.1c0.1,0,0.2,0.1,0.3,0.1l0.1,0l0.1,0l0.1,0.1c1.6,0.7,3.5,1.3,5.5,1.5c0.5,0.1,1,0.1,1.5,0.1
		c0.1,0,0.2,0,0.4,0l0.2,0l0.2,0c0.3,0,0.5,0,0.8,0c1.1-0.1,2.1-0.2,3.2-0.4c2.2-0.5,4.3-1.4,6.2-2.7c1.9-1.3,3.6-3,4.9-4.9
		c1.4-1.9,2.4-3.9,3.2-6c0.2-0.6,0.5-1.3,0.6-1.9c0.1-0.3,0.1-0.6,0.2-0.8c0.8-3.3,1.2-7.2,0.1-10.4c-0.2-0.6-0.8-1.6-1.3-2.1
		c0,0.1-0.1,0.3-0.1,0.4c-0.2,1-0.1,1.6,0.1,2.5c0.1,0.3,0.1,0.7,0.2,1c0.7,4.8-0.6,9.1-1.2,10.6C37.8,35.8,37.7,35.9,37.7,36z"/>
	<path class="st0" d="M40.4,32C40.4,32,40.4,32,40.4,32c0,0-0.2,0-0.2,0c-0.1,0.6-0.2,1.2-0.4,1.8c-0.1,0.3-0.1,0.5-0.2,0.8
		c0,0,0.2,0,0.2,0c0.4,0.1,0.9-0.4,1-1.1C41.1,32.7,40.9,32,40.4,32z"/>
	<path class="st0" d="M35.5,17.5c0-0.1-0.1-0.2-0.1-0.3c0-0.1-0.1-0.2-0.1-0.3c-0.4-0.7-0.8-1.3-1.2-1.9c-0.4-0.6-1-1.1-1.4-1.5
		c-0.4-0.4-0.8-0.7-1.2-1.1c-0.2-0.2-0.4-0.3-0.5-0.5c-0.2-0.1-0.3-0.3-0.5-0.4c-0.2-0.1-0.3-0.2-0.4-0.3c-0.3-0.3-0.7-0.5-1.1-0.7
		c-0.3-0.2-0.7-0.1-0.9,0.2c-0.2,0.3-0.1,0.7,0.2,0.9c0,0,0.1,0,0.2,0.1c0.1,0,0.1,0.1,0.2,0.1c0,0,0.1,0.1,0.1,0.1
		c0,0,0.1,0.1,0.1,0.1c0.1,0.1,0.2,0.1,0.3,0.2c0.1,0.1,0.3,0.2,0.4,0.3c0.1,0.1,0.3,0.2,0.5,0.4c0.2,0.1,0.3,0.3,0.5,0.4
		c0.3,0.3,0.8,0.7,1.3,1.1c0.4,0.4,0.7,0.8,1.1,1.3c0.4,0.5,0.8,1.1,1.1,1.8c0.1,0.1,0.1,0.2,0.1,0.2c0,0.1,0.1,0.1,0.1,0.2
		c0.1,0.2,0.1,0.3,0.2,0.5c0.1,0.3,0.3,0.7,0.4,1.1c0.1,0.2,0.1,0.4,0.2,0.7c0.2,0.5,0.5,0.8,0.6,0.9c0,0,0-0.1,0-0.1
		c0-0.2,0.1-0.5,0.2-0.7c0.2-0.9,0.4-1.5-0.1-2.6L35.5,17.5z"/>
	<path class="st0" d="M35.6,35.6c0,0.1-0.1,0.2-0.1,0.2c-0.1,0.3,0.1,0.7,0.4,0.9c0.3,0.1,0.7,0,0.8-0.4c0.1-0.3,2.2-5.2,1.4-11
		c-0.1-0.4-0.1-0.7-0.2-1c-0.2-0.9-0.3-1.5-0.1-2.6c0-0.2,0.1-0.4,0.1-0.6c0.2-1,0.6-2.2-0.2-3.9C35.4,12,30,7.4,24.3,6.3
		c-3.1-0.6-5.5-0.2-6-0.1c-2,0.3-3.6,0.8-5.2,1.5l-0.1,0.1l-0.1,0l-0.1,0c-0.1,0-0.2,0.1-0.3,0.1c-0.1,0-0.2,0.1-0.3,0.1l-0.1,0.1
		l-0.1,0.1c-0.2,0.1-0.4,0.2-0.6,0.3c-0.2,0.1-0.4,0.2-0.5,0.3C10.1,9.4,9.5,9.8,9,10.3c-0.3,0.2-0.5,0.5-0.8,0.7
		c-0.1,0.1-0.2,0.2-0.4,0.3c-0.1,0.1-0.2,0.2-0.3,0.3c-0.1,0.1-0.2,0.2-0.3,0.3c-0.1,0.1-0.2,0.2-0.3,0.3c-0.2,0.2-0.4,0.4-0.5,0.6
		C6.2,13,6.1,13.2,6,13.3c-0.3,0.4-0.6,0.8-0.9,1.1c0,0.1-0.1,0.1-0.1,0.2c-0.1,0.2-0.3,0.4-0.4,0.6c-0.1,0.1-0.1,0.2-0.2,0.3
		c-0.1,0.2-0.2,0.4-0.3,0.7c0,0,0,0.1,0,0.1c0,0.2,0.1,0.5,0.2,0.7c0.2,0.3,0.5,0.4,0.8,0.5c0.2,0,0.5,0,0.7-0.1
		C6,17.2,6.1,17.1,6.3,17c0.1-0.1,0.2-0.3,0.3-0.5c0-0.1,0.1-0.2,0.1-0.2c0.1-0.2,0.2-0.3,0.3-0.5c0.1-0.2,0.2-0.4,0.3-0.5
		c0.1-0.2,0.2-0.4,0.3-0.5c0.1-0.2,0.3-0.4,0.4-0.6c0.3-0.4,0.6-0.8,1-1.2c0.2-0.2,0.4-0.4,0.6-0.6c0.2-0.2,0.5-0.4,0.7-0.6
		c0.5-0.4,1-0.8,1.7-1.2c0.2-0.1,0.3-0.2,0.5-0.3c0.2-0.1,0.3-0.2,0.5-0.3l0.1-0.1L13,9.8c0.1,0,0.2-0.1,0.3-0.1
		c0.1,0,0.2-0.1,0.3-0.1l0,0l0,0c0,0,0,0,0,0c0,0,0,0,0,0l0,0c0,0,0,0,0,0l0.1,0l0.1-0.1c0.4-0.2,0.7-0.3,1.1-0.5
		c0.4-0.1,0.8-0.3,1.2-0.4C17,8.3,17.9,8,18.8,7.9c0.5-0.1,2.2-0.4,5.8,0.2c4.3,0.8,9.6,5,11.8,9.7c0.5,1.2,0.3,2,0.1,2.8
		c-0.1,0.2-0.1,0.4-0.2,0.6c-0.3,1.4,0,2.1,0.2,3c0.1,0.3,0.2,0.8,0.2,1.2C37.4,31,35.6,35.6,35.6,35.6z"/>
</g>
</svg>
