<svg xmlns="http://www.w3.org/2000/svg" xmlns:xlink="http://www.w3.org/1999/xlink" version="1.1" x="0px" y="0px" width="70px" height="54px" viewBox="0 0 70 54" enable-background="new 0 0 70 54" xml:space="preserve">
<g id="Dark">
</g>
<g id="Light">
	<g id="Mac">
		<path id="Mac_Compare" fill="#333333" d="M42,46V25.5c0-0.958-0.522-1.5-1.5-1.5h-35C4.522,24,4,24.504,4,25.5V46H0    c0.053,0.092,0.127,0.323,0.211,0.323c0,0,2.071,1.248,4.64,1.422c2.566,0.174,5.144,0.264,5.149,0.252C10.002,47.994,23,48,23,48    l13-0.003c0,0,2.358-0.081,4.926-0.252c2.568-0.171,4.639-1.422,4.639-1.422c0.084,0,0.383-0.231,0.436-0.323H42z M6,26h34v20H6    V26z M52.949,48v-0.005c0.016-0.002,0.029-0.008,0.042-0.015c0.141-0.043,0.243-0.17,0.243-0.324c0-0.191-0.154-0.345-0.346-0.345    c-0.025-0.001-0.044-0.003-0.069-0.005c-1.362,0.085-2.626-0.817-2.927-2.188L49,41h19.469c0.7,0,1.531-0.833,1.531-1.531V9.531    C70,8.833,69.169,8,68.469,8H23.531C22.83,8,22,8.833,22,9.531L22.019,23L24,23V10h44v25H43v6v4h4v1c-0.042,1.542-3,2-3,2H52.949z     M46.945,38.829c-0.03,0.06-0.061,0.117-0.092,0.167c-0.034,0.051-0.066,0.097-0.097,0.136c-0.032,0.039-0.059,0.066-0.075,0.085    c-0.035,0.029-0.07,0.055-0.107,0.073c-0.034,0.019-0.071,0.026-0.11,0.026c-0.024,0-0.056-0.005-0.09-0.016    c-0.036-0.011-0.072-0.022-0.109-0.034s-0.075-0.023-0.112-0.035c-0.039-0.01-0.071-0.015-0.102-0.015    c-0.033,0-0.07,0.005-0.109,0.017c-0.039,0.011-0.078,0.023-0.117,0.036c-0.04,0.013-0.077,0.024-0.109,0.035    c-0.033,0.01-0.062,0.015-0.083,0.015c-0.032,0-0.06-0.005-0.088-0.015c-0.029-0.011-0.059-0.029-0.09-0.054    c-0.031-0.025-0.062-0.058-0.097-0.1c-0.035-0.042-0.073-0.092-0.115-0.155c-0.04-0.058-0.073-0.121-0.107-0.189    c-0.031-0.07-0.062-0.141-0.084-0.216c-0.021-0.073-0.04-0.147-0.052-0.223c-0.013-0.075-0.021-0.147-0.021-0.219    c0-0.109,0.016-0.211,0.047-0.304c0.033-0.092,0.078-0.174,0.135-0.242c0.057-0.069,0.122-0.121,0.197-0.159    c0.075-0.037,0.157-0.056,0.246-0.056c0.065,0,0.143,0.019,0.231,0.056c0.087,0.038,0.147,0.057,0.183,0.057    c0.013,0,0.034-0.005,0.064-0.017c0.031-0.011,0.079-0.027,0.138-0.05c0.059-0.02,0.104-0.034,0.139-0.042    s0.071-0.012,0.107-0.012c0.099,0,0.19,0.023,0.28,0.071c0.088,0.046,0.158,0.108,0.209,0.186    c-0.095,0.057-0.164,0.125-0.207,0.206c-0.042,0.079-0.062,0.173-0.062,0.28c0,0.112,0.028,0.214,0.088,0.307    c0.059,0.093,0.142,0.164,0.249,0.211C47.001,38.704,46.975,38.768,46.945,38.829z M45.995,37.306    c0-0.063,0.015-0.125,0.041-0.188c0.028-0.062,0.063-0.121,0.111-0.173c0.044-0.049,0.099-0.092,0.159-0.125    c0.062-0.033,0.126-0.049,0.191-0.053c0.003,0.009,0.004,0.018,0.004,0.025v0.027c0,0.064-0.014,0.13-0.041,0.195    c-0.026,0.065-0.061,0.123-0.105,0.174c-0.045,0.052-0.095,0.093-0.151,0.123c-0.056,0.031-0.113,0.045-0.171,0.045    c-0.023,0-0.036-0.003-0.037-0.014C45.995,37.336,45.995,37.324,45.995,37.306z"/>
	</g>
</g></svg>
