<svg xmlns="http://www.w3.org/2000/svg" xmlns:xlink="http://www.w3.org/1999/xlink" version="1.1" x="0px" y="0px" width="38px" height="54px" viewBox="0 0 38 54" enable-background="new 0 0 38 54" xml:space="preserve">
<g id="Dark">
</g>
<g id="Light">
	<g id="iPhone_1_">
		<path id="iPhone_6" fill="#333333" d="M14.995,48.128l-0.044-1.12H2V16.993h13V13H3.87C2.294,13,1,14.303,1,15.876V48.14    C1,49.713,2.294,51,3.87,51h12.773C15.786,50.327,14.995,49.295,14.995,48.128z M9,15h3v0.5H9V15z M10.501,50.5    C9.674,50.5,9,49.827,9,49.001c0-0.828,0.674-1.5,1.501-1.5c0.827,0,1.499,0.672,1.499,1.5C12,49.827,11.328,50.5,10.501,50.5z     M34.653,6H19.327C17.485,6,16,7.51,16,9.353V47.63c0,1.846,1.485,3.37,3.327,3.37h15.326C36.493,51,38,49.476,38,47.63V9.353    C38,7.51,36.493,6,34.653,6z M25.5,8.501h3v0.5h-3V8.501z M27.001,50.25c-0.966,0-1.751-0.784-1.751-1.75    c0-0.966,0.785-1.75,1.751-1.75c0.965,0,1.749,0.784,1.749,1.75C28.75,49.466,27.966,50.25,27.001,50.25z M37,46H17V11h20V46z     M27,49.5c-0.551,0-1-0.45-1-1.001c0-0.551,0.449-0.999,1-0.999s1,0.448,1,0.999C28,49.05,27.551,49.5,27,49.5z M10.5,49.875    c-0.482,0-0.875-0.392-0.875-0.875c0-0.481,0.392-0.875,0.875-0.875s0.875,0.393,0.875,0.875    C11.375,49.483,10.982,49.875,10.5,49.875z"/>
	</g>
</g></svg>
